<?xml version="1.0" encoding="utf-8" ?>
<svg xmlns="http://www.w3.org/2000/svg" xmlns:ev="http://www.w3.org/2001/xml-events" xmlns:xlink="http://www.w3.org/1999/xlink" baseProfile="full" height="100%" version="1.1" viewBox="-52.0,-77.0,281.0,241.0" width="100%">
  <defs/>
  <g id="bkgnd">
    <rect fill="white" height="241.0" stroke="none" stroke-width="1" width="281.0" x="-52.0" y="-77.0"/>
  </g>
  <g id="symbol" transform="translate(0,0) scale(1,-1)">
    <rect fill="none" height="100" stroke="none" width="100" x="-50.0" y="-50.0"/>
    <circle cx="0" cy="0" fill="white" r="25.0" stroke="black" stroke-width="2"/>
    <line stroke="black" stroke-linecap="round" stroke-width="2" x1="0" x2="0" y1="-25.0" y2="-50.0"/>
    <line stroke="black" stroke-linecap="round" stroke-width="2" x1="0" x2="0" y1="25.0" y2="50.0"/>
    <polygon fill="black" points="0,-18.75 0,6.25 5,6.25 0,18.75 -5,6.25 0,6.25" stroke="black" stroke-linecap="round" stroke-width="2"/>
  </g>
  <g id="text">
    <text fill="black" font-family="sans-serif" font-size="18" text-anchor="start" x="5" y="-30.0">Icp</text>
  </g>
  <g id="symbol" transform="translate(0,50.0)">
    <rect fill="none" height="50" stroke="none" width="50" x="-25.0" y="-25.0"/>
    <polyline fill="white" points="0,0 20.0,0 0,20.0 -20.0,0 0,0" stroke="black" stroke-linecap="round" stroke-width="2"/>
  </g>
  <g id="text"/>
  <g id="symbol" transform="translate(100,0) rotate(-90)">
    <rect fill="none" height="100" stroke="none" width="100" x="-50.0" y="-50.0"/>
    <rect fill="white" height="8" stroke="none" width="92" x="-46.0" y="-4"/>
    <polyline fill="none" points="-50.0,0 -30,0 -25,-10 -20,0 -20,0 -15,10 -10,0 -10,0 -5,-10 0,0 0,0 5,10 10,0 10,0 15,-10 20,0 20,0 25,10 30,0 50.0,0" stroke="black" stroke-linecap="round" stroke-width="2"/>
  </g>
  <g id="text">
    <text fill="black" font-family="sans-serif" font-size="18" text-anchor="start" x="115.0" y="-5">Rt</text>
  </g>
  <g id="symbol" transform="translate(100,85.0)">
    <rect fill="none" height="100" stroke="none" width="100" x="-50.0" y="-50.0"/>
    <circle cx="0" cy="0" fill="white" r="25.0" stroke="black" stroke-width="2"/>
    <line stroke="black" stroke-linecap="round" stroke-width="2" x1="0" x2="0" y1="-25.0" y2="-50.0"/>
    <line stroke="black" stroke-linecap="round" stroke-width="2" x1="0" x2="0" y1="25.0" y2="50.0"/>
    <line stroke="black" stroke-linecap="round" stroke-width="2" x1="-7.0" x2="7.0" y1="12.5" y2="12.5"/>
    <line stroke="black" stroke-linecap="round" stroke-width="2" x1="-7.0" x2="7.0" y1="-12.5" y2="-12.5"/>
    <line stroke="black" stroke-linecap="round" stroke-width="2" x1="0" x2="0" y1="-5.5" y2="-19.5"/>
  </g>
  <g id="text">
    <text fill="black" font-family="sans-serif" font-size="18" text-anchor="start" x="105" y="55.0">Vt</text>
  </g>
  <g id="symbol" transform="translate(100,135.0)">
    <rect fill="none" height="50" stroke="none" width="50" x="-25.0" y="-25.0"/>
    <polyline fill="white" points="0,0 20.0,0 0,20.0 -20.0,0 0,0" stroke="black" stroke-linecap="round" stroke-width="2"/>
  </g>
  <g id="text"/>
  <g id="symbol" transform="translate(150,-50.0)">
    <rect fill="none" height="50" stroke="none" width="150" x="-75.0" y="-25.0"/>
    <circle cx="4" cy="0" fill="white" r="4" stroke="black" stroke-width="2"/>
  </g>
  <g id="text">
    <text fill="black" font-family="sans-serif" font-size="18" text-anchor="start" x="163" y="-42.8">Verr</text>
  </g>
  <g id="wire">
    <polyline fill="none" points="0,-50.0 150,-50.0" stroke="black" stroke-linecap="round" stroke-width="2"/>
  </g>
</svg>
